D:\school\WTK\thesis\model\3dpredictsim\Results\debug_batch\Pog_s1_tmt_bCst_d00_k1000_ig24_pas_GRF.mot
nRows=10
nColumns=19

name D:\school\WTK\thesis\model\3dpredictsim\Results\debug_batch\Pog_s1_tmt_bCst_d00_k1000_ig24_pas_GRF.mot
datacolumns 19
datarows 10
range 0.5560373188 0.6561240362
endheader
time 	ground_force_vx	ground_force_vy	ground_force_vz	ground_force_px	ground_force_py	ground_force_pz	1_ground_force_vx	1_ground_force_vy	1_ground_force_vz	1_ground_force_px	1_ground_force_py	1_ground_force_pz	ground_torque_x	ground_torque_y	ground_torque_z	1_ground_torque_x	1_ground_torque_y	1_ground_torque_z
        0.5560373188	       96.4043788719	      520.1969835468	        3.7176604778	        0.3819875574	        0.0000000000	        0.0369698275	      -86.3234138071	       79.4744438792	      -35.5582279421	        0.8742441586	        0.0000000000	       -0.0382863728	        0.0000000000	        0.0000000000	        0.0000000000	        0.0000000000	        0.0000000000	        0.0000000000	
        0.5671580652	       80.4556180213	      441.9807886275	        8.4459257517	        0.3853160533	        0.0000000000	        0.0361034770	      -80.0658856183	      173.8953757024	      -74.9959576322	        0.8803037797	        0.0000000000	       -0.0366679682	        0.0000000000	        0.0000000000	        0.0000000000	        0.0000000000	        0.0000000000	        0.0000000000	
        0.5782788116	       64.7429593316	      357.4945621648	        6.9959695993	        0.3901892303	        0.0000000000	        0.0344489864	      -36.1593077875	      314.9623215269	      -16.4167042447	        0.8836596270	        0.0000000000	       -0.0345984589	        0.0000000000	        0.0000000000	        0.0000000000	        0.0000000000	        0.0000000000	        0.0000000000	
        0.5893995579	       42.5338185225	      266.4139106598	        4.9199400329	        0.3980460664	        0.0000000000	        0.0313247135	      -37.1858364989	      445.1317749069	       -0.0350932611	        0.8866378151	        0.0000000000	       -0.0347667213	        0.0000000000	        0.0000000000	        0.0000000000	        0.0000000000	        0.0000000000	        0.0000000000	
        0.6005203043	       17.5228036671	      174.6562729647	        8.7799194758	        0.4120373863	        0.0000000000	        0.0251182649	      -70.3843682137	      596.8229017275	        4.8490848360	        0.8939192931	        0.0000000000	       -0.0369968400	        0.0000000000	        0.0000000000	        0.0000000000	        0.0000000000	        0.0000000000	        0.0000000000	
        0.6116410507	        3.3890065928	      133.3570927937	       12.7172985741	        0.4191404975	        0.0000000000	        0.0215410834	      -96.4204697116	      725.1903415640	        9.3226734056	        0.9005465532	        0.0000000000	       -0.0389862219	        0.0000000000	        0.0000000000	        0.0000000000	        0.0000000000	        0.0000000000	        0.0000000000	
        0.6227617971	        1.5693886323	      102.1976470308	       13.0480467709	        0.4197051524	        0.0000000000	        0.0216116965	     -105.7456234335	      789.2456561302	       11.3567953651	        0.9052309238	        0.0000000000	       -0.0402691985	        0.0000000000	        0.0000000000	        0.0000000000	        0.0000000000	        0.0000000000	        0.0000000000	
        0.6338825435	       -2.4049455776	       65.9322034372	       11.7309938386	        0.4201909086	        0.0000000000	        0.0216418471	     -103.6797845258	      802.6405508457	       12.0539080743	        0.9086939526	        0.0000000000	       -0.0410816254	        0.0000000000	        0.0000000000	        0.0000000000	        0.0000000000	        0.0000000000	        0.0000000000	
        0.6450032898	       -7.9030912537	       26.8836907139	        5.7342564737	        0.4198891956	        0.0000000000	        0.0213050115	      -96.9306185825	      792.8105492714	       12.1954584056	        0.9116677827	        0.0000000000	       -0.0415827773	        0.0000000000	        0.0000000000	        0.0000000000	        0.0000000000	        0.0000000000	        0.0000000000	
        0.6561240362	        0.0949795915	       -0.0932987934	       -0.0019076609	        0.0000000000	        0.0000000000	        0.0000000000	      -87.9348148943	      778.9475412613	       13.0516877933	        0.9148339724	        0.0000000000	       -0.0418467568	        0.0000000000	        0.0000000000	        0.0000000000	        0.0000000000	        0.0000000000	        0.0000000000	
